<svg width="30" height="31" viewBox="0 0 30 31" fill="none" xmlns="http://www.w3.org/2000/svg">
<rect y="0.804932" width="30" height="30" rx="15" fill="url(#paint0_linear_1_33915)"/>
<g clip-path="url(#clip0_1_33915)">
<path d="M14.9738 11.693C14.2378 11.693 13.5552 11.877 12.9258 12.245C12.2965 12.613 11.7952 13.1117 11.4218 13.741C11.0485 14.3703 10.8618 15.0557 10.8618 15.797C10.8618 16.5383 11.0458 17.2237 11.4138 17.853C11.7818 18.4823 12.2832 18.981 12.9178 19.349C13.5525 19.717 14.2405 19.901 14.9818 19.901C15.7232 19.901 16.4085 19.717 17.0378 19.349C17.6672 18.981 18.1658 18.4823 18.5338 17.853C18.9018 17.2237 19.0858 16.5383 19.0858 15.797C19.0858 15.0557 18.9018 14.3703 18.5338 13.741C18.1658 13.1117 17.6672 12.613 17.0378 12.245C16.4085 11.877 15.7205 11.693 14.9738 11.693ZM14.9738 18.333C14.5152 18.333 14.0912 18.2183 13.7018 17.989C13.3125 17.7597 13.0032 17.4503 12.7738 17.061C12.5445 16.6717 12.4298 16.2477 12.4298 15.789C12.4298 15.3303 12.5445 14.909 12.7738 14.525C13.0032 14.141 13.3125 13.8343 13.7018 13.605C14.0912 13.3757 14.5152 13.261 14.9738 13.261C15.4325 13.261 15.8565 13.3757 16.2458 13.605C16.6352 13.8343 16.9445 14.141 17.1738 14.525C17.4032 14.909 17.5178 15.3303 17.5178 15.789C17.5178 16.2477 17.4032 16.6717 17.1738 17.061C16.9445 17.4503 16.6352 17.7597 16.2458 17.989C15.8565 18.2183 15.4325 18.333 14.9738 18.333ZM18.3338 7.88498H11.6138C10.7925 7.88498 10.0298 8.09298 9.32582 8.50898C8.63249 8.91432 8.08316 9.46632 7.67782 10.165C7.27249 10.8637 7.06982 11.6237 7.06982 12.445V19.149C7.06982 19.9703 7.27249 20.7303 7.67782 21.429C8.08316 22.1277 8.63249 22.6797 9.32582 23.085C10.0298 23.501 10.7925 23.709 11.6138 23.709H18.3338C19.1552 23.709 19.9232 23.501 20.6378 23.085C21.3205 22.6797 21.8645 22.1357 22.2698 21.453C22.6858 20.7383 22.8938 19.9703 22.8938 19.149V12.445C22.8938 11.6237 22.6858 10.8557 22.2698 10.141C21.8645 9.45832 21.3205 8.91432 20.6378 8.50898C19.9232 8.09298 19.1552 7.88498 18.3338 7.88498ZM21.3258 19.149C21.3258 19.693 21.1925 20.1943 20.9258 20.653C20.6592 21.1117 20.2965 21.4743 19.8378 21.741C19.3792 22.0077 18.8778 22.141 18.3338 22.141H11.6138C11.0698 22.141 10.5712 22.0077 10.1178 21.741C9.66449 21.4743 9.30449 21.1117 9.03782 20.653C8.77116 20.1943 8.63782 19.693 8.63782 19.149V12.445C8.63782 11.901 8.77116 11.3997 9.03782 10.941C9.30449 10.4823 9.66449 10.1197 10.1178 9.85298C10.5712 9.58632 11.0698 9.45298 11.6138 9.45298H18.3338C18.8778 9.45298 19.3792 9.58632 19.8378 9.85298C20.2965 10.1197 20.6592 10.4823 20.9258 10.941C21.1925 11.3997 21.3258 11.901 21.3258 12.445V19.149ZM19.1498 10.493C18.8512 10.493 18.5952 10.5997 18.3818 10.813C18.1685 11.0263 18.0618 11.2823 18.0618 11.581C18.0618 11.8797 18.1685 12.133 18.3818 12.341C18.5952 12.549 18.8512 12.653 19.1498 12.653C19.4485 12.653 19.7018 12.549 19.9098 12.341C20.1178 12.133 20.2218 11.8797 20.2218 11.581C20.2218 11.2823 20.1178 11.0263 19.9098 10.813C19.7018 10.5997 19.4485 10.493 19.1498 10.493Z" fill="white"/>
</g>
<defs>
<linearGradient id="paint0_linear_1_33915" x1="3.16101e-07" y1="30.8049" x2="30" y2="0.804932" gradientUnits="userSpaceOnUse">
<stop stop-color="#F09433"/>
<stop offset="0.25" stop-color="#E6683C"/>
<stop offset="0.5" stop-color="#DC2743"/>
<stop offset="0.75" stop-color="#CC2366"/>
<stop offset="1" stop-color="#BC1888"/>
</linearGradient>
<clipPath id="clip0_1_33915">
<rect width="16.02" height="16" fill="white" transform="matrix(1 0 0 -1 6.97998 23.8049)"/>
</clipPath>
</defs>
</svg>
